<?xml version="1.0" encoding="UTF-8" standalone="no"?>
<svg version="1.1" class="responsive" xmlns="http://www.w3.org/2000/svg" xmlns:xlink="http://www.w3.org/1999/xlink" x="0px" y="0px" viewBox="0 0 305.11 55.65" enable-background="new 0 0 305.11 55.65" xml:space="preserve" width="305px" height="56px">
<title>mobiForge</title>
<path fill="#FABC20" d="M168.79,3.23v14.81h13.75c0.5,0,0.88,0.38,0.88,0.82v1.57c0,0.44-0.37,0.82-0.88,0.82h-13.75v19.84
c0,0.44-0.37,0.82-0.88,0.82h-2.13c-0.44,0-0.82-0.38-0.82-0.82V0.91c0-0.5,0.38-0.88,0.82-0.88h19.96c0.44,0,0.82,0.38,0.82,0.88
v1.51c0,0.44-0.38,0.82-0.82,0.82H168.79z"></path>
<path fill="#FABC20" d="M187.11,26.59c0-10.61,4.96-16.45,13.93-16.45c8.92,0,14.07,5.9,14.07,16.13c0,10.93-4.84,16.7-14,16.7
C192.07,42.97,187.11,37.13,187.11,26.59z M190.93,26.52c0,8.73,3.77,13.81,10.23,13.81c6.4,0,10.11-5.02,10.11-13.62
c0-8.92-3.58-13.94-10.11-13.94C194.64,12.77,190.93,17.73,190.93,26.52z"></path>
<path fill="#FABC20" d="M220.57,41.09V11.45c0-0.44,0.38-0.82,0.82-0.82h1.57c0.5,0,0.75,0.25,0.75,0.69v0.69
c0,0.5,0.19,0.75,0.56,0.75c0.13,0,0.32-0.06,0.5-0.19c1.95-1.07,5.34-1.94,7.91-1.94h1.19c0.94,0,1.32,0.31,1.32,1.26v1.38
c0,0.76-0.31,1.07-0.94,1.07c-0.19,0-0.44,0-0.69-0.06c-1.69-0.32-3.58-0.57-4.46-0.57c-3.33,0-4.71,1.38-4.71,4.52v22.86
c0,0.44-0.38,0.82-0.88,0.82h-2.13C220.95,41.9,220.57,41.53,220.57,41.09z"></path>
<path fill="#FABC20" d="M239.24,50.56l0.38,0.19c2.51,1.51,5.4,2.26,8.41,2.26c6.59,0,10.36-2.95,10.36-8.1v-3.83
c0-0.57-0.12-0.82-0.44-0.82c-0.12,0-0.25,0.06-0.5,0.19c-2.7,1.44-4.9,1.94-7.66,1.94c-8.47,0-14.32-6.4-14.32-15.69
c0-9.79,6.03-16.57,14.76-16.57c2.45,0,4.33,0.44,7.35,1.76c0.75,0.31,0.94,0.38,1.13,0.38c0.19,0,0.31-0.13,0.31-0.38v-0.57
c0-0.44,0.25-0.69,0.75-0.69h1.63c0.44,0,0.82,0.37,0.82,0.82v31.2c0,5.53-0.88,7.98-3.71,10.11c-2.57,1.95-5.97,2.89-10.11,2.89
c-3.57,0-7.09-0.75-9.67-2.01c-1.19-0.63-1.32-0.75-1.32-1.45v-1.25c0-0.57,0.25-0.88,0.69-0.88c0.19,0,0.38,0.06,0.57,0.13
L239.24,50.56z M258.39,35.69V17.67c0-3.2-2.64-4.9-7.47-4.9c-7.09,0-11.61,5.34-11.61,13.75c0,4.52,1,7.34,3.45,9.86
c2.2,2.2,5.09,3.39,8.16,3.39C255.19,39.77,258.39,38.07,258.39,35.69z"></path>
<path fill="#FABC20" d="M271.14,25.45c0.06,5.21,0.57,7.47,2.26,9.92c0.94,1.38,2.27,2.45,3.65,3.14c1.69,0.88,3.7,1.26,5.78,1.26
c2.7,0,5.78-0.88,7.53-2.2c0.44-0.25,0.88-0.5,1.13-0.5c0.38,0,0.57,0.31,0.57,0.82v1.13c0,1.76-4.59,3.39-9.54,3.39
c-9.36,0-15.26-6.15-15.26-15.95c0-9.6,5.84-16.32,14.06-16.32C288.54,10.14,294,15.6,294,23v1.63c0,0.5-0.38,0.81-0.81,0.81H271.14
z M271.14,22.82h19.03c-0.19-6.15-3.71-10.04-9.17-10.04C275.73,12.77,271.71,16.92,271.14,22.82z"></path>
<path fill="#FFFFFF" d="M0,0.73v40.43c0,0.4,0.33,0.73,0.73,0.73h40.44"></path>
<path fill="#FABC20" d="M0.73,0C0.33,0,0,0.33,0,0.73v30.99c0,0.4,0.23,0.5,0.52,0.21l6.62-6.62c0.28-0.28,0.75-0.28,1.03,0
l7.93,7.93c0.28,0.28,0.28,0.75,0,1.03l-7.11,7.12c-0.28,0.28-0.19,0.51,0.21,0.51h31.97c0.4,0,0.73-0.33,0.73-0.73V0.73
c0-0.4-0.33-0.73-0.73-0.73H0.73z"></path>
<path fill="#FFFFFF" d="M37.9,22.13L20.23,4.48c-1.89-1.89-4.98-1.89-6.87,0l-7.6,7.6c-1.89,1.89-1.89,4.99,0,6.88l4.89,4.88
l6.88,6.87l5.9,5.89c1.89,1.89,4.98,1.9,6.88,0l7.6-7.6C39.79,27.11,39.79,24.02,37.9,22.13z"></path>
<path fill="#393D3D" d="M49.72,12.8c0-0.48,0.42-0.89,0.9-0.89h3.11c1.01,0,0.96,0.72,0.96,1.5h0.18c1.08,0,2.09-0.54,3.05-0.9
c1.67-0.66,3.59-1.08,5.38-1.08c2.93,0,5.68,0.96,7.83,2.93h0.72c2.81-1.8,6.34-2.93,9.69-2.93c6.22,0,10.65,3.53,10.65,9.99v19.55
c0,0.48-0.42,0.9-0.9,0.9h-3.83c-0.48,0-0.9-0.42-0.9-0.9V21.89c0-4.18-2.09-6.27-6.27-6.27c-1.32,0-2.76,0.18-4.02,0.59
c-1.85,0.65-2.51,1.56-2.51,3.53v21.23c0,0.48-0.42,0.9-0.9,0.9h-3.83c-0.48,0-0.9-0.42-0.9-0.9V21.94c0-4.3-2.33-6.33-6.57-6.33
c-1.32,0-2.64,0.24-3.89,0.72c-1.73,0.66-2.39,1.43-2.39,3.29v21.35c0,0.48-0.42,0.9-0.9,0.9h-3.77c-0.48,0-0.9-0.42-0.9-0.9V12.8z"></path>
<path fill="#393D3D" d="M108.28,11.42c9.63,0,14.42,6.52,14.42,15.67c0,8.97-4.72,15.79-14.23,15.79c-9.51,0-14.53-6.64-14.53-15.73
C93.94,18.12,98.78,11.42,108.28,11.42z M108.34,38.7c6.94,0,8.49-5.75,8.49-11.61c0-5.92-1.61-11.54-8.55-11.54
c-7.05,0-8.49,5.69-8.49,11.66C99.79,33.07,101.35,38.7,108.34,38.7z"></path>
<path fill="#393D3D" d="M124.65,34.59V0.9c0-0.47,0.42-0.89,0.89-0.89h3.77c0.48,0,0.9,0.42,0.9,0.89v12.56
c0.54-0.05,0.95-0.3,1.43-0.53c2.03-1.02,4.07-1.5,6.34-1.5c9.15,0,14.53,6.1,14.53,15.07c0,9.15-5.74,15.85-15.13,15.85
c-2.03,0-3.97-0.59-5.86-1.37C126.38,38.84,124.65,34.59,124.65,34.59z M136.84,38.16c2.45,0,4.96-0.83,6.81-2.51
c2.52-2.34,2.99-5.69,2.99-8.97c0-6.51-3.29-11.06-10.17-11.06c-1.2,0-2.63,0.18-3.71,0.59c-1.67,0.65-2.57,1.37-2.57,3.29V34.5
C130.21,37.56,134.63,38.16,136.84,38.16z"></path>
<path fill="#FABC20" d="M156.99,0c2.15,0,3.35,1.2,3.35,3.35c0,2.27-1.2,3.35-3.41,3.35c-2.21,0-3.35-1.2-3.35-3.41
C153.58,1.2,154.9,0,156.99,0z"></path>
<path fill="#393D3D" d="M154.18,12.8c0-0.48,0.42-0.89,0.9-0.89h3.77c0.47,0,0.9,0.42,0.9,0.89v28.17c0,0.48-0.42,0.9-0.9,0.9h-3.77
c-0.48,0-0.9-0.42-0.9-0.9V12.8z"></path>
<path fill="#FABC20" d="M297.29,36.77h-1.58c-0.07,0-0.12-0.04-0.12-0.1v-0.2c0-0.06,0.04-0.12,0.12-0.12h3.65
c0.06,0,0.12,0.06,0.12,0.12v0.2c0,0.06-0.06,0.1-0.12,0.1h-1.58v5.02c0,0.06-0.04,0.1-0.1,0.1h-0.29c-0.06,0-0.1-0.04-0.1-0.1
V36.77z M300.56,37.05v4.74c0,0.06-0.06,0.1-0.12,0.1h-0.19c-0.06,0-0.1-0.04-0.1-0.1v-5.32c0-0.06,0.05-0.12,0.1-0.12h0.39
c0.13,0,0.19,0.04,0.25,0.19l1.78,4.9l1.72-4.89c0.05-0.16,0.1-0.2,0.24-0.2h0.38c0.06,0,0.1,0.06,0.1,0.12v5.32
c0,0.06-0.04,0.1-0.1,0.1h-0.29c-0.06,0-0.1-0.04-0.1-0.1v-4.67l-1.65,4.64c-0.04,0.1-0.11,0.13-0.26,0.13h-0.21
c-0.11,0-0.17-0.03-0.2-0.13L300.56,37.05z"></path>
</svg>